HIERARCHY
ROOT Root
{
  OFFSET 0.0 0.0 0.0
  CHANNELS 6 Xposition Yposition Zposition Zrotation Yrotation Xrotation
  JOINT Hips
  {
    OFFSET 0.0 100.0 0.0
    CHANNELS 6 Xposition Yposition Zposition Zrotation Yrotation Xrotation
    JOINT Spine1
    {
      OFFSET 5.003913 -0.037094 -0.013727
      CHANNELS 3 Zrotation Yrotation Xrotation
      JOINT Spine2
      {
        OFFSET 7.125363 -1e-06 0.0
        CHANNELS 3 Zrotation Yrotation Xrotation
        JOINT Chest
        {
          OFFSET 7.594027 1e-06 0.0
          CHANNELS 3 Zrotation Yrotation Xrotation
          JOINT Neck1
          {
            OFFSET 26.313086 -0.460272 -0.181672
            CHANNELS 3 Zrotation Yrotation Xrotation
            JOINT Neck2
            {
              OFFSET 8.045911 0.0 0.0
              CHANNELS 3 Zrotation Yrotation Xrotation
              JOINT Head
              {
                OFFSET 6.432774 0.0 0.0
                CHANNELS 3 Zrotation Yrotation Xrotation
                JOINT HeadEnd
                {
                  OFFSET 16.169773 0.06451 0.00362
                  CHANNELS 3 Zrotation Yrotation Xrotation
                }
                JOINT Jaw
                {
                  OFFSET 0.108741 3.12938 0.002639
                  CHANNELS 3 Zrotation Yrotation Xrotation
                }
                JOINT LeftEye
                {
                  OFFSET 4.45173 8.166359 3.206392
                  CHANNELS 3 Zrotation Yrotation Xrotation
                }
                JOINT RightEye
                {
                  OFFSET 4.436895 8.135758 -3.222429
                  CHANNELS 3 Zrotation Yrotation Xrotation
                }
              }
            }
          }
          JOINT LeftShoulder
          {
            OFFSET 23.218927 5.195579 1.621656
            CHANNELS 3 Zrotation Yrotation Xrotation
            JOINT LeftArm
            {
              OFFSET 15.902118 2e-06 -2e-06
              CHANNELS 3 Zrotation Yrotation Xrotation
              JOINT LeftForeArm
              {
                OFFSET 28.739307 0.0 -1e-06
                CHANNELS 3 Zrotation Yrotation Xrotation
                JOINT LeftHand
                {
                  OFFSET 27.093981 -4e-06 0.0
                  CHANNELS 3 Zrotation Yrotation Xrotation
                  JOINT LeftHandThumb1
                  {
                    OFFSET 2.276781 3.380274 0.83384
                    CHANNELS 3 Zrotation Yrotation Xrotation
                    JOINT LeftHandThumb2
                    {
                      OFFSET 4.705309 -1e-06 -1e-06
                      CHANNELS 3 Zrotation Yrotation Xrotation
                      JOINT LeftHandThumb3
                      {
                        OFFSET 2.798515 0.0 3e-06
                        CHANNELS 3 Zrotation Yrotation Xrotation
                        JOINT LeftHandThumbEnd
                        {
                          OFFSET 3.180793 4e-06 -4e-06
                          CHANNELS 3 Zrotation Yrotation Xrotation
                        }
                      }
                    }
                  }
                  JOINT LeftHandIndex1
                  {
                    OFFSET 3.247786 2.352677 0.137192
                    CHANNELS 3 Zrotation Yrotation Xrotation
                    JOINT LeftHandIndex2
                    {
                      OFFSET 6.367095 1e-06 0.0
                      CHANNELS 3 Zrotation Yrotation Xrotation
                      JOINT LeftHandIndex3
                      {
                        OFFSET 3.662364 0.0 0.0
                        CHANNELS 3 Zrotation Yrotation Xrotation
                        JOINT LeftHandIndex4
                        {
                          OFFSET 2.329242 4e-06 -4e-06
                          CHANNELS 3 Zrotation Yrotation Xrotation
                          JOINT LeftHandIndexEnd
                          {
                            OFFSET 2.767823 1e-06 0.0
                            CHANNELS 3 Zrotation Yrotation Xrotation
                          }
                        }
                      }
                    }
                  }
                  JOINT LeftHandMiddle1
                  {
                    OFFSET 3.163612 0.945023 -0.406112
                    CHANNELS 3 Zrotation Yrotation Xrotation
                    JOINT LeftHandMiddle2
                    {
                      OFFSET 6.276789 3e-06 0.0
                      CHANNELS 3 Zrotation Yrotation Xrotation
                      JOINT LeftHandMiddle3
                      {
                        OFFSET 4.35652 -1e-06 4e-06
                        CHANNELS 3 Zrotation Yrotation Xrotation
                        JOINT LeftHandMiddle4
                        {
                          OFFSET 2.996877 0.0 8e-06
                          CHANNELS 3 Zrotation Yrotation Xrotation
                          JOINT LeftHandMiddleEnd
                          {
                            OFFSET 2.323256 3e-06 -4e-06
                            CHANNELS 3 Zrotation Yrotation Xrotation
                          }
                        }
                      }
                    }
                  }
                  JOINT LeftHandRing1
                  {
                    OFFSET 2.882606 -0.309162 0.107445
                    CHANNELS 3 Zrotation Yrotation Xrotation
                    JOINT LeftHandRing2
                    {
                      OFFSET 6.033198 0.0 4e-06
                      CHANNELS 3 Zrotation Yrotation Xrotation
                      JOINT LeftHandRing3
                      {
                        OFFSET 4.350578 3e-06 0.0
                        CHANNELS 3 Zrotation Yrotation Xrotation
                        JOINT LeftHandRing4
                        {
                          OFFSET 2.651321 2e-06 -7e-06
                          CHANNELS 3 Zrotation Yrotation Xrotation
                          JOINT LeftHandRingEnd
                          {
                            OFFSET 1.937663 1e-06 -4e-06
                            CHANNELS 3 Zrotation Yrotation Xrotation
                          }
                        }
                      }
                    }
                  }
                  JOINT LeftHandPinky1
                  {
                    OFFSET 2.865315 -1.525436 0.575687
                    CHANNELS 3 Zrotation Yrotation Xrotation
                    JOINT LeftHandPinky2
                    {
                      OFFSET 5.54936 1e-06 -8e-06
                      CHANNELS 3 Zrotation Yrotation Xrotation
                      JOINT LeftHandPinky3
                      {
                        OFFSET 3.070974 0.0 -4e-06
                        CHANNELS 3 Zrotation Yrotation Xrotation
                        JOINT LeftHandPinky4
                        {
                          OFFSET 1.549672 1e-06 0.0
                          CHANNELS 3 Zrotation Yrotation Xrotation
                          JOINT LeftHandPinkyEnd
                          {
                            OFFSET 1.952123 0.0 0.0
                            CHANNELS 3 Zrotation Yrotation Xrotation
                          }
                        }
                      }
                    }
                  }
                }
              }
            }
          }
          JOINT RightShoulder
          {
            OFFSET 23.161716 5.296122 -1.380114
            CHANNELS 3 Zrotation Yrotation Xrotation
            JOINT RightArm
            {
              OFFSET -16.027195 -2e-06 1.1e-05
              CHANNELS 3 Zrotation Yrotation Xrotation
              JOINT RightForeArm
              {
                OFFSET -28.736639 4e-06 2e-06
                CHANNELS 3 Zrotation Yrotation Xrotation
                JOINT RightHand
                {
                  OFFSET -27.133619 6e-06 0.0
                  CHANNELS 3 Zrotation Yrotation Xrotation
                  JOINT RightHandThumb1
                  {
                    OFFSET -2.274328 -3.351035 -0.83067
                    CHANNELS 3 Zrotation Yrotation Xrotation
                    JOINT RightHandThumb2
                    {
                      OFFSET -4.703594 -3e-06 2e-06
                      CHANNELS 3 Zrotation Yrotation Xrotation
                      JOINT RightHandThumb3
                      {
                        OFFSET -2.794935 -4e-06 -3e-06
                        CHANNELS 3 Zrotation Yrotation Xrotation
                        JOINT RightHandThumbEnd
                        {
                          OFFSET -3.183852 4e-06 1e-06
                          CHANNELS 3 Zrotation Yrotation Xrotation
                        }
                      }
                    }
                  }
                  JOINT RightHandIndex1
                  {
                    OFFSET -3.253496 -2.33755 -0.127667
                    CHANNELS 3 Zrotation Yrotation Xrotation
                    JOINT RightHandIndex2
                    {
                      OFFSET -6.344434 0.0 0.0
                      CHANNELS 3 Zrotation Yrotation Xrotation
                      JOINT RightHandIndex3
                      {
                        OFFSET -3.654871 0.0 -8e-06
                        CHANNELS 3 Zrotation Yrotation Xrotation
                        JOINT RightHandIndex4
                        {
                          OFFSET -2.327586 -1e-06 0.0
                          CHANNELS 3 Zrotation Yrotation Xrotation
                          JOINT RightHandIndexEnd
                          {
                            OFFSET -2.770001 3e-06 8e-06
                            CHANNELS 3 Zrotation Yrotation Xrotation
                          }
                        }
                      }
                    }
                  }
                  JOINT RightHandMiddle1
                  {
                    OFFSET -3.168223 -0.944764 0.411762
                    CHANNELS 3 Zrotation Yrotation Xrotation
                    JOINT RightHandMiddle2
                    {
                      OFFSET -6.266691 -1e-06 -4e-06
                      CHANNELS 3 Zrotation Yrotation Xrotation
                      JOINT RightHandMiddle3
                      {
                        OFFSET -4.348901 0.0 0.0
                        CHANNELS 3 Zrotation Yrotation Xrotation
                        JOINT RightHandMiddle4
                        {
                          OFFSET -3.00024 2e-06 -4e-06
                          CHANNELS 3 Zrotation Yrotation Xrotation
                          JOINT RightHandMiddleEnd
                          {
                            OFFSET -2.321477 -4e-06 -4e-06
                            CHANNELS 3 Zrotation Yrotation Xrotation
                          }
                        }
                      }
                    }
                  }
                  JOINT RightHandRing1
                  {
                    OFFSET -2.885654 0.293261 -0.119232
                    CHANNELS 3 Zrotation Yrotation Xrotation
                    JOINT RightHandRing2
                    {
                      OFFSET -6.032835 -1e-06 -4e-06
                      CHANNELS 3 Zrotation Yrotation Xrotation
                      JOINT RightHandRing3
                      {
                        OFFSET -4.33881 0.0 -4e-06
                        CHANNELS 3 Zrotation Yrotation Xrotation
                        JOINT RightHandRing4
                        {
                          OFFSET -2.654903 -4e-06 -4e-06
                          CHANNELS 3 Zrotation Yrotation Xrotation
                          JOINT RightHandRingEnd
                          {
                            OFFSET -1.935122 0.0 4e-06
                            CHANNELS 3 Zrotation Yrotation Xrotation
                          }
                        }
                      }
                    }
                  }
                  JOINT RightHandPinky1
                  {
                    OFFSET -2.866241 1.503904 -0.60527
                    CHANNELS 3 Zrotation Yrotation Xrotation
                    JOINT RightHandPinky2
                    {
                      OFFSET -5.553177 -2e-06 0.0
                      CHANNELS 3 Zrotation Yrotation Xrotation
                      JOINT RightHandPinky3
                      {
                        OFFSET -3.062664 -1e-06 -4e-06
                        CHANNELS 3 Zrotation Yrotation Xrotation
                        JOINT RightHandPinky4
                        {
                          OFFSET -1.546529 2e-06 4e-06
                          CHANNELS 3 Zrotation Yrotation Xrotation
                          JOINT RightHandPinkyEnd
                          {
                            OFFSET -1.952341 0.0 -4e-06
                            CHANNELS 3 Zrotation Yrotation Xrotation
                          }
                        }
                      }
                    }
                  }
                }
              }
            }
          }
        }
      }
    }
    JOINT LeftLeg
    {
      OFFSET -8.443107 2.567604 10.043214
      CHANNELS 3 Zrotation Yrotation Xrotation
      JOINT LeftShin
      {
        OFFSET 43.229198 1e-06 -1e-06
        CHANNELS 3 Zrotation Yrotation Xrotation
        JOINT LeftFoot
        {
          OFFSET 42.298611 1e-06 1e-06
          CHANNELS 3 Zrotation Yrotation Xrotation
          JOINT LeftToeBase
          {
            OFFSET 14.165858 1e-06 0.0
            CHANNELS 3 Zrotation Yrotation Xrotation
            JOINT LeftToeEnd
            {
              OFFSET 6.7141 -0.234461 0.0
              CHANNELS 3 Zrotation Yrotation Xrotation
            }
          }
        }
      }
    }
    JOINT RightLeg
    {
      OFFSET -8.303923 2.592729 -10.047278
      CHANNELS 3 Zrotation Yrotation Xrotation
      JOINT RightShin
      {
        OFFSET -43.369682 0.0 1e-06
        CHANNELS 3 Zrotation Yrotation Xrotation
        JOINT RightFoot
        {
          OFFSET -42.260784 4e-06 2e-06
          CHANNELS 3 Zrotation Yrotation Xrotation
          JOINT RightToeBase
          {
            OFFSET -14.222245 -2e-06 -1e-06
            CHANNELS 3 Zrotation Yrotation Xrotation
            JOINT RightToeEnd
            {
              OFFSET -6.660062 0.232574 -2e-06
              CHANNELS 3 Zrotation Yrotation Xrotation
            }
          }
        }
      }
    }
  }
}
MOTION
Frames: 4
Frame Time: 0.03333333333333333
0.0 0.0 0.0 0.0 -0.0 0.0 -0.900919 47.930069 1.690964 89.584007 -52.933372 89.947624 11.798962 0.318893 -0.818732 -4.093961 -0.463852 -1.360003 24.893496 2.752455 -2.507348 17.324974 -2.351874 2.440348 -2.875499 -0.482886 0.810061 -34.746929 0.237054 1.106254 7e-06 0.0 -0.0 -0.107169 0.055766 -0.031874 0.087902 0.018403 0.021065 0.080332 0.093356 -0.07909 -30.742586 -69.830818 35.029293 81.165192 -6.796668 -26.791977 12.376846 -1.169184 0.17619 -0.042221 68.590408 -1.500215 17.636631 -26.322729 52.411186 -19.466661 -14.395602 29.410385 -1e-06 -8.774822 -3e-06 16.45319 -17.67503 6.356719 -0.609777 -1.795655 -3.889328 -4.80709 -11.046812 -2.937849 3e-06 -20.976017 1e-06 -5.019972 -25.033556 -4.03188 6e-06 -1e-06 1e-06 -10.634537 -5.686971 -3.565587 10.573274 -17.922951 -3.113901 2e-06 -13.821211 1e-06 -0.501778 -31.181505 -4.027016 -10.894886 -59.927479 7.769988 -13.982717 -7.150198 -2.875041 13.77273 -8.401493 -3.218241 0.347732 -34.211555 0.771654 -0.963028 -17.73337 2.621018 0.0 0.0 -1e-06 -17.346422 -20.095221 -4.201779 21.757559 -1.638374 3.866427 1e-06 -6.338825 1e-06 -1.69759 -22.591747 -6.194006 -0.0 -5e-06 -2e-06 170.501541 -73.769073 14.608498 90.557396 -2.603615 -19.619867 8.864176 -0.786596 0.074185 -37.225361 70.259033 -44.728367 22.182114 -20.375891 49.933308 -16.701809 -16.743525 28.476526 -2e-06 -12.690599 -1e-06 16.435045 -17.847012 2.658717 -0.105919 -1.513857 -4.27588 -5.039039 -5.61287 -2.953556 3e-06 -11.020523 -3e-06 -6.111299 -15.89533 -3.840471 1e-06 -0.0 1e-06 -10.283369 -5.680289 -4.341837 11.028293 -11.302404 -2.372633 -1.384268 -14.238581 -6.320117 -0.625439 -26.924185 -3.827601 -3.985307 -48.79694 -4.429716 -13.708527 -7.363475 -3.720938 18.141148 -14.052739 -3.242674 6e-06 -18.787266 -4e-06 -0.429712 -8.456043 2.555503 0.0 1e-06 1e-06 -15.923532 -20.094484 -5.473581 30.41921 -7.190825 1.735926 2e-06 -8.162925 -0.0 -1.861902 -22.861475 -6.167942 -0.0 -3e-06 -2e-06 113.946877 -9.921319 7.833421 125.918991 -0.522042 0.267062 -97.263863 14.196377 10.670517 -45.651115 1.844796 1.192162 -0.999998 1e-06 -0.0 -59.861286 -6.661982 4.448522 121.528793 -0.160312 0.192596 -98.448799 12.764939 15.45894 -49.671394 1.15747 1.288379 -1.000004 -0.0 1e-06 
0.0 0.0 0.0 0.0 -0.0 0.0 -0.849532 47.928246 1.843218 89.227493 -52.992294 90.133461 11.772464 0.397621 -0.833879 -4.161602 -0.43077 -1.30011 24.893921 2.735513 -2.357024 17.272863 -2.370015 2.315234 -2.859697 -0.479298 0.744823 -34.608395 0.297509 1.054967 6e-06 0.0 -0.0 -0.112582 0.045572 -0.03354 0.127936 -0.002617 0.027173 0.114829 0.095901 -0.091173 -30.776768 -69.972031 35.356644 81.244987 -6.555697 -26.940363 12.14613 -1.172382 0.158737 1.279633 68.609146 -0.291884 17.636625 -26.322733 52.41119 -19.466663 -14.395598 29.410389 -1e-06 -8.774822 -1e-06 16.406918 -17.702105 6.383355 -0.609776 -1.795652 -3.889327 -4.80709 -11.046818 -2.93785 4e-06 -20.976021 1e-06 -5.019973 -25.033562 -4.03188 6e-06 0.0 2e-06 -10.634533 -5.686971 -3.565586 10.573272 -17.922955 -3.113901 2e-06 -13.821213 1e-06 -0.501778 -31.181507 -4.027017 -10.714258 -60.001915 7.669891 -13.982714 -7.150199 -2.875041 13.77273 -8.401494 -3.218243 0.347731 -34.211555 0.771655 -0.963029 -17.73337 2.621019 -0.0 -0.0 0.0 -17.346418 -20.095219 -4.201779 21.757559 -1.638375 3.866426 1e-06 -6.338825 1e-06 -1.69759 -22.591751 -6.194005 0.0 -6e-06 -1e-06 170.424072 -73.743057 14.870751 90.659584 -2.569052 -19.950563 8.707375 -0.78383 0.079251 -36.255394 70.299782 -44.200768 22.182121 -20.375898 49.933323 -16.70182 -16.743532 28.476536 -2e-06 -12.690606 -1e-06 16.409754 -17.82613 2.684776 -0.10592 -1.513857 -4.275883 -5.039042 -5.61287 -2.953556 3e-06 -11.020528 -2e-06 -6.111301 -15.895341 -3.840472 -1e-06 -0.0 1e-06 -10.283374 -5.680289 -4.341839 11.028297 -11.302409 -2.372634 -1.384268 -14.238588 -6.32012 -0.625437 -26.924194 -3.827602 -3.963324 -48.88776 -4.346644 -13.708524 -7.363477 -3.720941 18.141155 -14.052744 -3.242676 6e-06 -18.787275 -3e-06 -0.429712 -8.456047 2.555506 1e-06 0.0 -1e-06 -15.923539 -20.09449 -5.473585 30.419218 -7.190826 1.735925 3e-06 -8.162929 -1e-06 -1.861903 -22.861483 -6.167943 -0.0 -2e-06 -1e-06 114.031273 -10.112846 7.881448 125.755821 -0.54835 0.261918 -96.840561 14.208027 10.875906 -45.564579 1.838847 1.141654 -1.000001 -0.0 1e-06 -59.72366 -6.4459 4.263258 121.249931 -0.195557 0.165844 -97.981125 12.773145 15.617091 -49.382534 1.150005 1.288334 -1.000003 -0.0 -0.0 
0.0 0.0 0.0 0.0 -0.0 0.0 -0.808955 47.927319 2.088564 89.010345 -53.022976 90.250443 11.708933 0.43097 -0.820958 -4.214204 -0.392018 -1.235868 24.919554 2.733899 -2.252224 17.229284 -2.368695 2.209402 -2.854594 -0.54455 0.651191 -34.53891 0.281951 0.987045 7e-06 -0.0 -0.0 -0.1096 0.028987 -0.029324 0.122419 -0.024681 0.028203 0.108776 0.085746 -0.086993 -30.420174 -70.028397 35.231895 81.245926 -6.428937 -26.763195 12.096414 -1.168769 0.154451 1.41555 68.523491 -0.254971 17.636629 -26.322731 52.411194 -19.466658 -14.395592 29.410389 -2e-06 -8.774819 -3e-06 16.347168 -17.698048 6.397628 -0.609776 -1.795654 -3.889327 -4.807088 -11.046808 -2.93785 5e-06 -20.976015 -1e-06 -5.019968 -25.033554 -4.03188 6e-06 -0.0 1e-06 -10.634532 -5.68697 -3.565588 10.573275 -17.922949 -3.1139 3e-06 -13.821209 1e-06 -0.501776 -31.181501 -4.027016 -10.587704 -60.023739 7.601651 -13.982713 -7.150196 -2.875044 13.772729 -8.401493 -3.218239 0.347735 -34.211544 0.771655 -0.963028 -17.733368 2.621021 -0.0 -0.0 -0.0 -17.346416 -20.095217 -4.201785 21.757557 -1.638376 3.86643 2e-06 -6.338825 0.0 -1.697588 -22.59174 -6.194008 0.0 -5e-06 -2e-06 170.818665 -73.698959 14.645144 90.550735 -2.603182 -20.314346 8.628782 -0.825758 0.080073 -35.521984 70.470825 -43.603188 22.182117 -20.375895 49.933323 -16.701805 -16.743525 28.476522 -2e-06 -12.6906 -2e-06 16.394258 -17.759256 2.692506 -0.10592 -1.513858 -4.27588 -5.039039 -5.612867 -2.953555 2e-06 -11.020525 -3e-06 -6.111298 -15.89533 -3.840472 -1e-06 -0.0 2e-06 -10.283371 -5.680288 -4.341838 11.028291 -11.3024 -2.37263 -1.38427 -14.23858 -6.320119 -0.62544 -26.924181 -3.827602 -3.925172 -48.890076 -4.268685 -13.708524 -7.363477 -3.72094 18.141146 -14.052735 -3.242669 3e-06 -18.787266 -3e-06 -0.429712 -8.456041 2.555504 1e-06 0.0 1e-06 -15.923532 -20.094482 -5.473582 30.419205 -7.190823 1.73593 2e-06 -8.162922 -0.0 -1.861905 -22.861467 -6.16794 -1e-06 -2e-06 -1e-06 114.322365 -10.265148 7.827417 125.49649 -0.567306 0.266205 -96.719765 14.111153 11.015766 -45.587559 1.836746 1.129531 -0.999999 0.0 -0.0 -59.42477 -6.265976 4.165347 120.875458 -0.214515 0.170874 -97.562958 12.740852 15.718125 -49.300243 1.139774 1.289745 -1.000004 0.0 1e-06 
0.0 0.0 0.0 0.0 -0.0 0.0 -0.793998 47.933743 2.258543 88.8218 -53.085831 90.375832 11.638715 0.449749 -0.801259 -4.258845 -0.372166 -1.18752 24.913542 2.798417 -2.17932 17.159191 -2.41586 2.122936 -2.844081 -0.626025 0.567424 -34.566261 0.243041 0.918008 7e-06 -0.0 0.0 -0.10585 0.013457 -0.024005 0.102899 -0.042119 0.026925 0.089902 0.072101 -0.076977 -30.141226 -70.068077 35.124386 81.22377 -6.390488 -26.612289 12.164934 -1.168177 0.15025 1.422272 68.559196 -0.094382 17.636629 -26.322733 52.411201 -19.466663 -14.395597 29.410395 -0.0 -8.774822 -2e-06 16.295834 -17.679506 6.403669 -0.609776 -1.795654 -3.889328 -4.80709 -11.046813 -2.93785 4e-06 -20.976021 0.0 -5.019973 -25.033562 -4.031881 6e-06 -1e-06 0.0 -10.634534 -5.686972 -3.565589 10.573275 -17.922955 -3.113901 2e-06 -13.821213 1e-06 -0.501777 -31.181505 -4.027017 -10.559793 -60.026142 7.557207 -13.982716 -7.150198 -2.875043 13.772731 -8.401495 -3.218242 0.347733 -34.211555 0.771654 -0.963029 -17.73337 2.62102 0.0 -0.0 0.0 -17.346422 -20.095222 -4.201782 21.757561 -1.638374 3.866429 1e-06 -6.338825 0.0 -1.697589 -22.591745 -6.194007 0.0 -4e-06 -1e-06 171.243652 -73.604797 14.274768 90.398933 -2.784561 -20.637924 8.672516 -0.840557 0.080185 -35.017124 70.616661 -43.170078 22.182108 -20.375895 49.933319 -16.701809 -16.743526 28.47653 -1e-06 -12.690601 -1e-06 16.402069 -17.707207 2.684528 -0.105922 -1.513856 -4.275881 -5.039041 -5.612871 -2.953556 3e-06 -11.020524 -2e-06 -6.111296 -15.895332 -3.840471 -1e-06 -0.0 1e-06 -10.283369 -5.680288 -4.341839 11.028293 -11.302404 -2.372632 -1.384269 -14.238583 -6.320122 -0.625436 -26.924187 -3.827601 -3.884796 -48.901688 -4.204616 -13.708522 -7.363477 -3.720941 18.141148 -14.052737 -3.242674 5e-06 -18.78727 -3e-06 -0.429712 -8.456042 2.555504 0.0 0.0 0.0 -15.923536 -20.094484 -5.473586 30.41921 -7.190822 1.735925 2e-06 -8.162924 -1e-06 -1.861903 -22.861469 -6.16794 1e-06 -2e-06 -2e-06 114.4617 -10.357994 7.853201 125.319794 -0.577438 0.266849 -96.685562 14.045046 11.122511 -45.83448 1.839652 1.134328 -1.000001 0.0 0.0 -59.260471 -6.071682 4.123281 120.608971 -0.196681 0.17093 -97.254074 12.61526 15.774264 -49.357594 1.131977 1.292166 -1.000004 -1e-06 1e-06 
